<svg width="785" height="431" fill="none" xmlns="http://www.w3.org/2000/svg"><path d="M529.675 113.931h146.271c11.371 0 20.674-9.303 20.674-20.674V20.679c0-11.371-9.303-20.675-20.674-20.675H529.675C518.304.004 509 9.307 509 20.679v72.578c0 11.371 9.304 20.674 20.675 20.674z" fill="#FDD152"/><path d="M533.164 143.924V91.566l41.001 22.364-41.001 29.994z" fill="#FDD152"/><path d="M742.304 406.69H594.223v-16.156l18.506-3.495-18.506-2.183v-34.063h119.181l34.855 5.96-2.199 16.747-17.467 1.75 17.467 3.494-3.756 27.946z" fill="#fff"/><path d="M608.668 367.388c7.589-.409 15.183-.6 22.772-.761 7.589-.162 15.183-.152 22.772-.232 7.589.075 15.184.07 22.773.226l11.386.278c3.797.166 7.589.262 11.386.489-3.797.227-7.589.323-11.386.489l-11.386.277c-7.589.157-15.184.152-22.773.227-7.589-.08-15.183-.065-22.772-.232-7.589-.161-15.183-.353-22.772-.761zm24.96 24.945c7.589-.408 15.183-.6 22.772-.761 7.589-.162 15.183-.146 22.773-.232 7.589.075 15.183.07 22.772.227l11.386.277c3.797.167 7.589.262 11.386.489-3.797.227-7.589.323-11.386.489l-11.386.278c-7.589.156-15.183.151-22.772.227-7.59-.081-15.184-.066-22.773-.232-7.589-.157-15.178-.353-22.772-.762zm-39.405-41.54h146.144l7.892 5.96-154.036-5.96z" fill="#D1D1D3"/><path d="M750.41 322.699H585.77v30.568h164.64v-30.568z" fill="#FFC73C"/><path d="M647.126 328.594h-52.408v18.34h52.408v-18.34z" fill="#FFF9E1"/><path d="M742.657 337.766a9.173 9.173 0 11-18.344 0 9.173 9.173 0 0118.344 0z" fill="#FFFCDB"/><path d="M741.02 337.768a7.534 7.534 0 11-15.069 0 7.534 7.534 0 0115.069 0z" fill="#324751"/><path d="M602.254 332.09h-2.128v12.062h2.128V332.09zm6.186 0h-2.128v12.062h2.128V332.09zm6.177 0h-2.128v12.062h2.128V332.09z" fill="#777068"/><path d="M592.965 322.699h164.641v-30.568H592.965v30.568z" fill="#26A8D1"/><path d="M748.666 298.461h-52.407v18.34h52.407v-18.34z" fill="#FFF9E1"/><path d="M600.722 307.633a9.174 9.174 0 1118.347.003 9.174 9.174 0 01-18.347-.003z" fill="#79D2F3"/><path d="M602.36 307.631a7.534 7.534 0 1115.067.001 7.534 7.534 0 01-15.067-.001z" fill="#324751"/><path d="M743.244 301.246h-2.128v12.062h2.128v-12.062zm-6.174 0h-2.128v12.062h2.128v-12.062zm-6.188 0h-2.128v12.062h2.128v-12.062z" fill="#777068"/><path d="M336.427 364.55c-2.249.58-4.488 1.155-6.707 1.704-12.193 3.026-24.275 6.727-36.473 9.753-8.174 2.027-16.363 3.913-24.537 5.935-6.944 1.72-14.805 2.304-21.366 5.476-1.598.772-3.242 1.785-3.994 3.288-3.983 7.972 12.077 15.329 17.443 16.53 6.061 1.361 12.349 1.195 18.556 1.023 24.502-.68 48.894-1.447 73.325-1.447 2.077.04 4.185.066 6.187-.489 6.061-1.679 9.49-8.124 10.968-14.235a47.157 47.157 0 001.205-14.362c-.383-5.461-2.113-11.406-6.782-14.27-2.481-1.518-5.471-1.952-8.376-2.048-6.661-.211-13.055 1.498-19.449 3.142z" fill="#F9AE8F"/><path d="M464.669 73.016c1.563 7.064-5.658 14.371-11.714 17.205-5.043 2.36-10.937 1.73-16.409.696-2.833-.535-5.683-1.18-8.279-2.44-10.555-5.134-16.288-25.557-1.448-29.445 3.858-1.008 7.947.152 11.916-.236 3.605-.353 7.105-1.992 10.705-1.604 4.06.434 7.403 3.348 10.045 6.46 2.335 2.743 4.402 5.844 5.184 9.364z" fill="#6B463A"/><path d="M320.406 390.035c5.29 7.191 17.715 6.657 25.834 3.47 14.341-5.633 18.894-23.398 25.369-35.762 9.793-18.703 21.068-36.62 31.264-55.116 8.315-15.088 15.536-32.036 15.274-49.584-.131-8.825-6.994-25.4-17.825-19.49-9.738 5.31-17.08 15.506-23.741 24.064-7.508 9.641-16.111 19.247-22.636 29.569-.434.686-.857 1.377-1.276 2.073-8.961 14.971-18.027 30.755-24.517 47.269-5.229 13.303-17.483 40.271-7.746 53.507z" fill="#F9AE8F"/><path d="M318.585 337.64c.817-1.911 29.232-77.852 37.694-87.136 8.461-9.283 21.259-14.336 21.259-14.336l-10.629 121.95-48.324-20.478z" fill="#9B87FF"/><path d="M413.777 81.159c12.112-.7 25.192 1.422 36.523 5.769 9.939 3.817 18.653 10.947 23.852 20.291 6.711 12.062 13.02 25.137 10.055 39.322-.722 3.444-1.902 6.853-1.791 10.368.318 10.141 10.529 16.575 16.707 24.623 5.476 7.135 7.987 16.474 6.822 25.394-.857 6.591-3.6 13.384-1.366 19.646.973 2.734 2.818 5.048 4.351 7.514 5.24 8.411 6.652 18.985 4.297 28.566-2.668 10.852-9.606 16.777-19.782 20.751-28.733 11.229-60.618 13.69-91.029 8.511-7.61-1.296-15.37-3.156-21.628-7.679-8.623-6.233-13.272-16.893-14.2-27.493-.928-10.599 1.472-21.214 4.654-31.365 2.829-9.026 6.339-18.219 5.436-27.638-.55-5.713-2.602-11.134-3.449-16.792-.696-4.644.282-9.183-.545-13.761-2.102-11.613-4.508-22.46-4.382-34.411.096-9.067.53-19.999 4.554-28.324 7.564-15.662 23.766-22.299 40.921-23.292z" fill="#755946"/><path d="M269.703 403.159c-4.513.933-8.043 4.896-12.536 6.227-3.207.948-6.641.444-9.722-.716-2.834-1.064-5.713-1.628-8.623-2.561-2.269-.726-5.33-2.254-7.766-1.75-6.384 1.326-12.747 5.87-18.531 8.82-1.301.665-2.728 1.346-4.16 1.074-1.432-.273-2.633-2.012-1.816-3.223-1.664 1.554-3.867 4.665-6.555 3.46-1.099-.495-1.76-1.947-1.15-2.986-.923 1.014-1.891 2.058-3.167 2.562-1.275.504-2.944.282-3.696-.862-.353-.54-.459-1.205-.489-1.846-.111-2.214.56-4.402 1.483-6.419 4.558-9.944 14.86-17.321 23.629-23.246 1.553-1.049 3.132-2.108 4.922-2.658 1.603-.489 3.303-.545 4.977-.55a99.261 99.261 0 0132.056 5.179c2.229.752 4.684.111 6.908-.302 1.644-.308 3.363-.616 4.972-.147 1.8.525 3.192 1.952 4.286 3.47 2.012 2.793 3.555 6.495 3.313 10.004-.181 2.668-.383 5.542-3.52 6.102-1.27.227-2.581.085-3.867.222a11.53 11.53 0 00-.948.146z" fill="#F9AE8F"/><path d="M518.595 266l-1.84-.821c3.338-7.489 4.861-18.497-.872-26.943-1.73-2.552-3.959-4.644-6.314-6.863-1.336-1.256-2.713-2.557-3.984-3.938-3.449-3.752-7.069-9.959-7.382-15.365-.207-3.601 1.019-7.11 2.204-10.509.907-2.597 1.76-5.053 2.027-7.534 1.089-10.206-5.189-19.686-10.655-25.843-.298-.333-.6-.671-.903-1.003-2.461-2.733-5.002-5.562-6.026-9.208-.907-3.243-.443-6.576.01-9.803.096-.676.187-1.351.268-2.022 1.966-16.283-4.846-33.659-17.347-44.274l1.306-1.538c13.005 11.038 20.09 29.116 18.043 46.054-.081.681-.177 1.372-.273 2.057-.438 3.157-.857 6.142-.065 8.981.892 3.192 3.277 5.84 5.582 8.401.302.338.61.676.908 1.014 5.733 6.459 12.319 16.459 11.149 27.396-.288 2.708-1.226 5.391-2.128 7.983-1.17 3.358-2.279 6.53-2.093 9.727.283 4.886 3.747 10.741 6.853 14.119 1.22 1.326 2.572 2.602 3.883 3.832 2.335 2.194 4.745 4.468 6.601 7.201 5.188 7.64 5.587 18.713 1.048 28.899z" fill="#755946"/><path d="M471.539 206.85c-.852 3.202-2.521 6.207-2.808 9.505-.843 9.778 10.478 17.76 8.955 27.452-.751 4.77-4.634 8.588-9.056 10.534-4.423 1.946-9.349 2.33-14.175 2.587-16.353.867-32.792.565-49.034-1.538-7.009-.908-14.19-2.229-20.13-6.051-.963-.621-1.911-1.326-2.506-2.305-.762-1.24-.863-2.778-.767-4.23.53-7.811 6.117-14.382 7.861-22.016 2.139-9.355-1.704-19.157-.408-28.663 1.165-8.537 6.54-16.186 13.63-21.083 7.085-4.896 15.738-7.211 24.341-7.614 12.677-.6 23.796 3.893 31.778 13.892 6.525 8.159 15.274 18.446 12.319 29.53z" fill="#6B463A"/><path d="M569.7 399.543c-5.289 7.191-17.714 6.656-25.833 3.469-14.341-5.632-18.894-23.397-25.369-35.762-9.793-18.703-21.068-36.619-31.264-55.115-8.316-15.088-15.537-32.036-15.274-49.584.131-8.825 6.994-25.4 17.825-19.49 9.738 5.31 17.08 15.506 23.741 24.063 7.508 9.642 16.111 19.248 22.636 29.57.434.686.857 1.377 1.276 2.073 8.961 14.971 18.027 30.755 24.517 47.269 5.229 13.308 17.478 40.275 7.745 53.507z" fill="#F9AE8F"/><path d="M359.194 353.563c.035 1.108.05 2.226.045 3.348-.066 19.777-.136 39.558-.202 59.335 9.433 1.576 19.044 1.666 28.609 1.752 37.47.332 74.945.67 112.415 1.002a3583.594 3583.594 0 00-2.318-81.488c-.248-6.172-1.528-13.221-.44-19.313.896-4.989 2.46-9.878 3.209-15.009 1.913-13.1 3.532-26.291 3.487-39.553-.031-7.854-3.012-20.516-8.67-23.905-7.51-4.496-16.199-7.149-24.489-9.974-7.692-2.618-15.552-4.913-23.629-5.976-11.635-1.525-23.482-.735-34.95 1.637-10.476 2.169-20.673 5.508-30.699 9.198-3.689 1.359-8.714 2.256-11.665 4.788-3.411 2.925-5.324 8.871-7.034 12.874-5.719 13.387-9.302 27.898-10.415 42.403-.527 6.827-.856 14.309.587 21.06 2.748 12.829 5.749 24.741 6.159 37.821z" fill="#DBCDFE"/><path d="M451.81 255.65c-9.102 10.347-26.59 11.169-38.833 6.933-8.336-2.879-14.226-9.45-14.397-18.486-.197-10.1 8.663-17.276 10.897-26.685 1.271-5.335 1.145-10.832 1.014-16.263-.152-6.338-.197-12.687-.505-19.015 6.273-1.327 11.356-1.992 18.018-1.715 5.511.227 11.013-.348 16.524-.025.444.025.923.07 1.236.368.317.297.373.761.408 1.19.736 8.557.015 17.221.59 25.793.53 7.876 2.294 15.809 6.908 22.329 5.623 7.952 4.241 18.642-1.86 25.576z" fill="#F9AE8F"/><path d="M409.843 216.145c.989-4.957.888-10.04.767-15.062-.151-6.339-.197-12.687-.504-19.016 6.273-1.326 11.356-1.992 18.017-1.714 5.511.227 11.013-.348 16.524-.026.444.026.923.071 1.236.369.318.297.373.761.408 1.19.742 8.557.015 17.22.59 25.793.167 2.455.474 4.911.928 7.331a42.321 42.321 0 01-2.652 2.154c-6.803 5.032-15.97 6.701-24.109 4.392-4.14-1.18-7.861-3.036-11.205-5.411z" fill="#F58F70"/><path d="M518.495 376.324c-2.476.515-4.942 1.029-7.387 1.513-13.444 2.658-26.701 6.157-40.144 8.81-9.007 1.78-18.053 3.383-27.059 5.158-7.655 1.508-16.444 1.538-23.534 4.871-1.73.812-3.484 1.917-4.2 3.702-.994 2.491.383 5.274 1.724 7.629 1.705 2.995 3.707 6.243 6.969 7.277 1.195.378 2.456.418 3.701.453 12.728.384 25.592 1.291 38.339 1.306 15.073.086 30.145-.388 45.147-1.689 8.385-.726 16.741-1.901 25.147-2.793 8.628-.918 18.078-1.503 25.692-6.052 6.495-3.877 10.176-11.068 8.436-18.708-1.417-6.227-5.92-12.43-12.021-14.603-3.525-1.256-7.322-1.447-11.043-1.321-9.934.338-19.949 2.405-29.767 4.447z" fill="#F9AE8F"/><path d="M442.261 412.675c-4.514.932-8.043 4.896-12.536 6.227-3.207.948-6.641.444-9.722-.716-2.834-1.064-5.714-1.629-8.623-2.562-2.269-.726-5.33-2.254-7.766-1.749-6.384 1.326-12.748 5.869-18.531 8.819-1.301.666-2.729 1.347-4.161 1.074-1.432-.272-2.632-2.012-1.815-3.222-1.664 1.553-3.868 4.664-6.555 3.459-1.1-.494-1.76-1.946-1.15-2.985-.923 1.014-1.891 2.057-3.167 2.562-1.276.504-2.945.282-3.696-.863-.353-.539-.459-1.205-.489-1.845-.111-2.214.56-4.402 1.482-6.419 4.559-9.944 14.861-17.322 23.63-23.247 1.553-1.049 3.131-2.108 4.922-2.657 1.603-.489 3.302-.545 4.977-.55a99.26 99.26 0 0132.055 5.179c2.229.751 4.685.111 6.909-.303 1.644-.307 3.363-.615 4.972-.146 1.8.524 3.192 1.952 4.286 3.469 2.017 2.794 3.555 6.495 3.313 10.005-.182 2.667-.383 5.542-3.52 6.101-1.27.227-2.582.086-3.867.222a8.464 8.464 0 00-.948.147z" fill="#F9AE8F"/><path d="M369.11 156.375c-12.052 12.4-1.12 42.701 18.098 38.314 20.654-4.71 17.543-36.897-1.13-42.182-7.281-2.057-13.09-.121-16.968 3.868z" fill="#fff"/><path d="M464.215 151.069c.201-8.95-.797-17.477-2.9-24.592-9.076-30.705-46.815-39.292-70.284-18.098-26.171 23.629-18.067 82.134 8.2 103.343 7.024 5.673 16.721 7.866 25.505 5.779 26.57-6.329 38.853-38.465 39.479-66.432z" fill="#F9AE8F"/><path d="M464.934 127.834c-2.966-10.025-9.344-18.804-18.194-24.426-8.421-5.35-18.602-7.655-28.516-6.727-7.393.696-14.704 3.192-20.826 7.417-5.078 3.505-9.475 7.988-14.568 11.533-3.263 2.269-6.253 4.422-6.409 8.648-.414 11.2-.53 22.414-.343 33.624 0-1.886 2.748-5.426 3.621-7.145a257.255 257.255 0 003.393-6.974c1.911-4.09 5.194-8.003 8.996-10.438 3.974-2.547 8.517-4.468 11.417-8.366a86.514 86.514 0 0022.873 12.848c8.204 3.081 19.863 4.277 26.302 10.681 4.503 4.477 5.012 11.381 8.028 16.751 1.119 1.997 3.338 3.59 4.911 1.104 2.113-3.343 2.285-8.779 2.37-12.631.207-9.435-.842-18.411-3.055-25.899z" fill="#F58F70"/><path d="M460.676 154.509c11.855-6.056 14.992 10.212 12.758 18.199-.923 3.298-2.33 6.505-4.468 9.178-3.263 4.084-7.69 6.525-12.828 6.489-.147 0-.313-.01-.419-.116-.091-.09-.106-.226-.121-.347-.439-4.458 2.178-8.23 1.846-12.698-.162-2.158-.853-5.794-2.345-7.362-4.221-4.432.993-11.003 5.577-13.343z" fill="#F9AE8F"/><path d="M458.786 99.923c-7.67-4.07-17.336-5.527-25.152-7.01-10.091-1.91-20.69-3.877-30.881-1.527-8.956 2.067-17.029 7.539-22.526 14.866-5.582 7.437-7.553 15.193-7.826 24.325-.333 11.063-1.018 22.853 3.394 33.17 1.069-4.543 1.598-9.233 2.536-13.065 1.443-5.905 4.282-13.842 8.653-18.355 2.85-2.94 5.85-5.618 8.467-8.789.746-.908 7.145-8.427 6.576-9.244 3.998 5.714 11.552 9.546 17.518 12.859a120.57 120.57 0 0020.861 9.117c3.595 1.18 5.335 1.271 8.678 3.036 4.145 2.193 7.035 6.132 7.514 10.826.625 6.122 2.561 17.221 2.561 17.221s8.739-18.098 9.632-22.011c3.474-15.264 6.389-36.726-10.005-45.419z" fill="#755946"/><path d="M560.988 324.747c-.207.636-18.481 15.3-27.82 21.159-4.66 2.925-25.869 14.714-25.985 14.518-5.461-9.021-10.352-17.377-13.993-27.225-3.535-9.561-7.06-19.792-8.683-29.867-1.785-11.089-1.69-22.465.196-33.534 1.962-11.517 7.141-32.091 7.514-31.894 11.043 5.789 19.449 12.838 26.564 20.745 7.579 8.416 42.489 65.241 42.207 66.098z" fill="#9B87FF"/><path d="M420.448 210.574c-2.909 0-5.839-.217-8.769-.646l.525-3.56c10.65 1.568 21.269.086 30.714-4.291 2.567-1.19 4.74-2.436 6.646-3.817a31.359 31.359 0 008.608-9.49l3.106 1.815a34.896 34.896 0 01-9.601 10.584c-2.097 1.518-4.467 2.885-7.246 4.171-7.478 3.464-15.642 5.234-23.983 5.234z" fill="#fff"/><path d="M401.282 203.528c4.337-3.721 13.989-3.403 17.171.459 2.36 2.864 1.638 6.505-.959 8.926-3.07 2.864-6.868 2.697-10.7 1.835-4.8-1.079-10.741-6.732-5.512-11.22zm62.803-51.752c-16.751 4.296-23.221 35.848-4.538 42.131 20.08 6.752 34.214-22.334 21.033-36.579-5.139-5.557-11.104-6.934-16.495-5.552z" fill="#fff"/><path d="M469.576 155.828c-11.562 1.856-18.683 26.423-6.767 33.186 12.803 7.266 24.82-14.609 17.286-27.21-2.94-4.917-6.797-6.576-10.519-5.976z" fill="#A2CAD0"/><path d="M471.905 153.986l-4.467-.519c3.03-26.187 1.739-55.615-21.618-66.3-11.063-5.063-34.264-10.308-54.097-.42-3.278 1.206-7.529 4.02-7.529 4.02 15.385-16.283 51.556-13.151 63.497-7.69 25.813 11.815 27.411 43.24 24.214 70.909z" fill="#fff"/><path d="M107.791 406.972H65.453l-4.034-39.468h50.401l-4.029 39.468z" fill="#FDD152"/><path d="M117.525 361.629H55.723v11.744h61.802v-11.744z" fill="#FFDD60"/><path d="M78.153 337.324a118.84 118.84 0 011.503 7.877c.565 3.625.958 7.281 1.185 10.942.131 2.194 1.024 8.013-3.015 5.976-4.7-2.37-7.937-6.828-10.983-11.119-11.215-15.794-17.654-33.952-16.747-53.553.026-.524.076-1.099.444-1.467.293-.292.731-.393 1.145-.424 2.032-.151 3.923.994 5.537 2.234 8.668 6.682 13.655 16.429 17.205 26.545a119.286 119.286 0 013.726 12.989zm21.41-13.717a94.174 94.174 0 01-2.033 6.142 94.056 94.056 0 01-3.459 8.179c-.766 1.598-2.425 6.051-4.473 3.03-2.385-3.514-2.92-7.927-3.383-12.152-1.71-15.537.877-30.866 9.207-44.335.222-.358.485-.746.893-.862.323-.091.67.01.973.151 1.493.691 2.375 2.239 3.026 3.747 3.494 8.113 3.182 16.943 1.714 25.47a94.464 94.464 0 01-2.466 10.63zm11.394 32.606a73.87 73.87 0 01-10.65 5.355c-1.276.52-4.559 2.209-4.155-.6.469-3.267 2.47-6.081 4.417-8.749 7.145-9.818 16.656-17.271 28.491-20.649.317-.091.67-.177.963-.03.232.116.378.358.479.595.494 1.175.191 2.531-.222 3.736-2.239 6.49-7.039 11.402-12.344 15.526a73.243 73.243 0 01-6.979 4.816z" fill="#26A8D1"/><path d="M59.547 354.291a72.606 72.606 0 004.382 2.466 74.801 74.801 0 006.268 2.889c1.276.52 4.559 2.209 4.155-.6-.469-3.267-2.47-6.081-4.417-8.749-7.145-9.817-16.656-17.27-28.49-20.649-.318-.091-.671-.176-.964-.03-.232.116-.378.358-.479.595-.494 1.175-.192 2.531.222 3.736 2.239 6.49 7.04 11.402 12.344 15.527a72.724 72.724 0 006.98 4.815z" fill="#26A8D1"/><path d="M107.345 344.682a117.285 117.285 0 01-4.216 6.817 116.702 116.702 0 01-6.525 8.865c-1.382 1.704-4.665 6.596-6.263 2.365-1.866-4.922-1.235-10.393-.58-15.617 2.41-19.217 9.934-36.952 23.847-50.794.373-.368.796-.761 1.321-.782.418-.02.807.207 1.129.464 1.599 1.261 2.219 3.384 2.572 5.391 1.876 10.786-1.039 21.34-5.259 31.193a116.973 116.973 0 01-6.026 12.098z" fill="#3DC8E8"/><path d="M90.883 338.366a117.88 117.88 0 01-1.805 18.925c-.383 2.163-.888 8.027-4.337 5.103-4.014-3.404-6.111-8.497-8.068-13.383-7.196-17.982-9.198-37.144-3.721-55.988.146-.505.333-1.049.776-1.327.358-.216.802-.211 1.216-.141 2.012.328 3.58 1.886 4.856 3.47 6.863 8.527 9.42 19.177 10.498 29.842.46 4.478.65 8.991.585 13.499z" fill="#3DC8E8"/><path d="M116.12 367.502H57.132l-1.78-11.744H117.9l-1.78 11.744z" fill="#FFDD60"/><path d="M770.731 430.368H13.958C6.248 430.368 0 425.149 0 418.709c0-6.439 6.248-11.658 13.958-11.658h756.778c7.71 0 13.958 5.219 13.958 11.658 0 6.435-6.253 11.659-13.963 11.659z" fill="#3DC8E8"/><path d="M448.761 393.871H274.352v13.176h174.409v-13.176z" fill="#7DAAB4"/><path d="M394.264 393.871H243.5v13.176h150.764v-13.176zm-257.681-24.445l199.656 5.36 7.362-3.615a4.966 4.966 0 001.554-4.296l-17.327-132.253a4.966 4.966 0 00-4.926-4.321H120.29a4.962 4.962 0 00-3.369 1.316l-3.292 6.949 22.954 130.86z" fill="#A2CAD0"/><path d="M135.034 374.875h198.89a4.968 4.968 0 004.927-5.612l-16.928-129.191a4.968 4.968 0 00-4.927-4.322h-198.89c-3 0-5.315 2.637-4.927 5.612l16.928 129.192a4.97 4.97 0 004.927 4.321z" fill="#F8F7F7"/><path d="M176.562 407.048h91.63v-8.81h-83.299a8.334 8.334 0 00-8.331 8.331v.479z" fill="#A2CAD0"/><path d="M256.875 407.048h35.868v-.479a8.333 8.333 0 00-8.33-8.331h-27.538v8.81z" fill="#7DAAB4"/><path d="M238.667 329.852l4.584 44.934h-22.903l18.319-44.934z" fill="#DDF0F5"/><path d="M196.992 407.049h32.015l9.657-77.197h-27.049l-14.623 77.197z" fill="#A2CAD0"/><path d="M642.233 407.047h-22.041c-6.404 0-11.598-5.193-11.598-11.598V342.25h45.237v53.199c0 6.405-5.194 11.598-11.598 11.598z" fill="#EA394A"/><path d="M657 356.902c-10.846 0-19.641 8.926-19.641 19.929 0 11.008 8.795 19.928 19.641 19.928 10.847 0 19.641-8.925 19.641-19.928s-8.794-19.929-19.641-19.929zm0 32.757c-6.979 0-12.637-5.743-12.637-12.823s5.658-12.824 12.637-12.824 12.637 5.744 12.637 12.824-5.658 12.823-12.637 12.823z" fill="#EA394A"/><path d="M643.382 342.25v53.341c0 6.328-5.128 11.456-11.456 11.456h10.448c6.328 0 11.457-5.128 11.457-11.456V342.25h-10.449z" fill="#EA394A"/><path opacity=".2" d="M615.36 382.451a2.45 2.45 0 01-2.446-2.445v-31.537a2.452 2.452 0 012.446-2.446c1.346 0 2.445 1.1 2.445 2.446v31.537a2.454 2.454 0 01-2.445 2.445z" fill="#fff"/><path d="M317.846 80.613h11.931c5.073 0 9.223 4.15 9.223 9.223 0 3.136-1.589 5.92-3.999 7.589v6.491l-6.639-4.857h-10.52c-5.073 0-9.222-4.15-9.222-9.223s4.153-9.223 9.226-9.223z" fill="#A1D0E0"/><path d="M330.496 91.236a1.399 1.399 0 110-2.798 1.399 1.399 0 010 2.798zm-6.681 0a1.399 1.399 0 110-2.798 1.399 1.399 0 010 2.798zm-6.683 0a1.4 1.4 0 110-2.8 1.4 1.4 0 010 2.8z" fill="#fff"/><path d="M321.664 167.685h-22.219a4.348 4.348 0 01-4.336-4.336V151.41a4.348 4.348 0 014.336-4.336h22.219A4.348 4.348 0 01326 151.41v11.939a4.348 4.348 0 01-4.336 4.336z" fill="#A1D0E0"/><path d="M310.553 161.771c-.61 0-1.221-.22-1.673-.661l-13.525-13.113.503-.52 13.525 13.113c.632.614 1.705.614 2.341 0l13.525-13.113.502.52-13.525 13.113a2.395 2.395 0 01-1.673.661z" fill="#fff"/><path d="M306.471 158.219l-11.096 8.527.44.573 11.096-8.527-.44-.573zm8.161.024l-.44.573 11.097 8.526.441-.573-11.098-8.526z" fill="#fff"/><path d="M381.527 40.39h-21.135A3.391 3.391 0 01357 36.998V24.392A3.391 3.391 0 01360.392 21h21.135a3.391 3.391 0 013.392 3.392v12.606a3.391 3.391 0 01-3.392 3.393z" fill="#A1D0E0"/><path d="M370.956 46.518l4.896-6.604h-9.79l4.894 6.604z" fill="#A1D0E0"/><path d="M378.309 33.187h-1.207V29.88l.011-.543.02-.594c-.201.2-.339.334-.418.396l-.656.529-.583-.727 1.841-1.464h.992v5.71zm-8.96-5.906h-3.963a3.071 3.071 0 00-3.062 3.062c0 1.04.529 1.965 1.329 2.519v2.157l2.205-1.612h3.491a3.071 3.071 0 003.062-3.061 3.07 3.07 0 00-3.062-3.065zm164.083 32.983c-.111 1.53-.677 2.734-1.7 3.613-1.015.879-2.356 1.318-4.023 1.318-1.823 0-3.258-.612-4.307-1.836-1.041-1.23-1.562-2.916-1.562-5.058v-.87c0-1.366.241-2.571.722-3.613.482-1.041 1.169-1.839 2.061-2.392.898-.56 1.94-.84 3.125-.84 1.641 0 2.962.44 3.965 1.318 1.002.88 1.582 2.113 1.738 3.701h-2.93c-.071-.917-.328-1.582-.771-1.992-.436-.416-1.104-.625-2.002-.625-.977 0-1.709.352-2.197 1.055-.482.697-.729 1.78-.742 3.252v1.074c0 1.537.231 2.66.693 3.37.469.709 1.204 1.064 2.207 1.064.905 0 1.579-.205 2.021-.615.45-.417.707-1.058.772-1.924h2.93zm9.951 1.806h-5.137L537.27 65h-3.116l5.293-14.219h2.715L547.484 65h-3.115l-.986-2.93zm-4.346-2.373h3.555l-1.787-5.322-1.768 5.322zM560.375 65h-2.93l-5.703-9.355V65h-2.93V50.781h2.93l5.713 9.375v-9.375h2.92V65zm10.654 0H568.1V50.781h2.929V65zm19.278 0h-2.93v-6.094h-5.713V65h-2.93V50.781h2.93v5.762h5.713v-5.762h2.93V65zm11.123-6.162h-5.625v3.809h6.601V65h-9.531V50.781h9.512v2.373h-6.582v3.389h5.625v2.295zm5.625 3.809h6.22V65h-9.15V50.781h2.93v11.866zm10.84-2.657V65h-2.93V50.781h5.547c1.067 0 2.005.196 2.812.586.814.39 1.439.948 1.875 1.67.436.716.655 1.533.655 2.451 0 1.394-.479 2.494-1.436 3.301-.951.8-2.269 1.201-3.955 1.201h-2.568zm0-2.373h2.617c.774 0 1.364-.182 1.767-.547.41-.364.616-.885.616-1.562 0-.697-.206-1.26-.616-1.69-.41-.43-.976-.65-1.699-.664h-2.685v4.463zm19.863-.43l2.959-6.406h3.203l-4.668 9.063V65h-2.979v-5.156l-4.668-9.063h3.213l2.94 6.407zm18.847 1.026c0 1.4-.247 2.627-.742 3.681-.495 1.055-1.204 1.869-2.129 2.442-.918.573-1.972.86-3.164.86-1.178 0-2.23-.284-3.154-.85-.924-.567-1.641-1.374-2.148-2.422-.508-1.055-.765-2.266-.772-3.633v-.703c0-1.4.251-2.63.752-3.691.508-1.068 1.221-1.885 2.139-2.452.924-.573 1.979-.86 3.164-.86s2.236.287 3.154.86c.925.567 1.637 1.384 2.139 2.452.508 1.06.761 2.288.761 3.681v.635zm-2.968-.645c0-1.49-.267-2.623-.801-3.398-.534-.775-1.296-1.162-2.285-1.162-.983 0-1.742.384-2.276 1.152-.533.762-.804 1.882-.81 3.36v.693c0 1.452.267 2.578.801 3.379.533.8 1.302 1.201 2.304 1.201.983 0 1.739-.384 2.266-1.152.527-.775.794-1.901.801-3.38v-.693zm15.859-6.787v9.366c0 1.556-.488 2.786-1.465 3.69-.97.906-2.298 1.358-3.984 1.358-1.66 0-2.979-.44-3.955-1.318-.977-.879-1.475-2.087-1.494-3.623V50.78h2.929v9.385c0 .931.222 1.611.664 2.041.45.423 1.068.635 1.856.635 1.647 0 2.484-.866 2.51-2.598V50.78h2.939zm4.522 9.854c0-.912.11-1.638.332-2.178.221-.54.625-1.07 1.211-1.592.592-.527.986-.954 1.181-1.28a2.02 2.02 0 00.293-1.044c0-1.1-.508-1.65-1.523-1.65-.482 0-.869.15-1.162.449-.287.293-.437.7-.45 1.22h-2.832c.013-1.243.414-2.216 1.202-2.92.794-.703 1.875-1.054 3.242-1.054 1.38 0 2.451.335 3.213 1.006.761.664 1.142 1.605 1.142 2.822 0 .553-.124 1.078-.371 1.572-.247.489-.68 1.032-1.299 1.631l-.791.752c-.495.475-.778 1.032-.849 1.67l-.039.596h-2.5zm-.284 2.998c0-.436.147-.794.44-1.074.299-.287.68-.43 1.142-.43.463 0 .84.143 1.133.43.3.28.449.638.449 1.074 0 .43-.146.784-.439 1.064-.286.28-.667.42-1.143.42-.475 0-.859-.14-1.152-.42-.286-.28-.43-.635-.43-1.064z" fill="#fff"/></svg>